<svg width="16" height="18" viewBox="0 0 16 18" fill="none" xmlns="http://www.w3.org/2000/svg">
<path d="M7.75 5.23259V8.81867M14.75 7.1736C14.75 13.0622 10.4029 15.7022 8.56006 16.5569L8.55774 16.5579C8.36392 16.6478 8.26676 16.6929 8.04651 16.7316C7.90703 16.7561 7.59385 16.7561 7.45437 16.7316C7.23324 16.6927 7.13508 16.6475 6.93971 16.5569C5.09682 15.7022 0.75 13.0622 0.75 7.17359V3.61903C0.75 2.61484 0.75 2.11237 0.940739 1.72882C1.10852 1.39143 1.37604 1.11733 1.70532 0.945429C2.07967 0.75 2.57008 0.75 3.55017 0.75H11.9502C12.9303 0.75 13.4196 0.75 13.794 0.945429C14.1233 1.11733 14.3917 1.39143 14.5594 1.72882C14.75 2.11199 14.75 2.61386 14.75 3.61609V7.1736ZM7.79358 11.5082V11.5979L7.70642 11.5981V11.5082H7.79358Z" stroke="white" stroke-width="1.5" stroke-linecap="round" stroke-linejoin="round"/>
</svg>
