<svg width="18" height="20" viewBox="0 0 18 20" fill="none" xmlns="http://www.w3.org/2000/svg">
<path d="M11.7507 14.75V15.75C11.7507 17.4069 10.4075 18.75 8.75063 18.75C7.09375 18.75 5.75058 17.4069 5.75058 15.75V14.75M11.7507 14.75H5.75058M11.7507 14.75H15.3412C15.7238 14.75 15.916 14.75 16.0709 14.6978C16.3667 14.598 16.5982 14.3656 16.698 14.0698C16.7505 13.9143 16.7505 13.7215 16.7505 13.3359C16.7505 13.1672 16.7503 13.0829 16.7371 13.0024C16.7122 12.8504 16.6532 12.7063 16.5633 12.5812C16.5159 12.5151 16.4555 12.4548 16.3366 12.3358L15.947 11.9463C15.8214 11.8206 15.7508 11.6501 15.7508 11.4724V7.75C15.7508 3.884 12.6167 0.749991 8.75063 0.75C4.88457 0.750009 1.75051 3.88401 1.75051 7.75V11.4724C1.75051 11.6502 1.67975 11.8206 1.55407 11.9463L1.16456 12.3358C1.04525 12.4551 0.985534 12.515 0.937992 12.5812C0.848145 12.7064 0.788635 12.8504 0.763689 13.0024C0.750488 13.0829 0.750488 13.1672 0.750488 13.336C0.750488 13.7215 0.750488 13.9142 0.802942 14.0697C0.902741 14.3656 1.13529 14.598 1.43116 14.6978C1.58606 14.75 1.77752 14.75 2.16007 14.75H5.75058" stroke="white" stroke-width="1.5" stroke-linecap="round" stroke-linejoin="round"/>
</svg>
