<svg width="18" height="19" viewBox="0 0 18 19" fill="none" xmlns="http://www.w3.org/2000/svg">
<path d="M13.1944 17.7501L4.30556 17.7499M13.1944 17.7501L13.9083 17.7499C14.902 17.7499 15.3989 17.7499 15.7788 17.5442C16.1133 17.3631 16.386 17.074 16.5564 16.7186C16.75 16.3149 16.75 15.7864 16.75 14.7306V6.62401C16.75 6.20013 16.75 5.98715 16.7075 5.78489C16.6695 5.60445 16.6071 5.43117 16.5217 5.27008C16.427 5.09138 16.294 4.93442 16.0326 4.62581L13.5835 1.73455C13.2806 1.37692 13.127 1.19565 12.9427 1.06549C12.7769 0.948395 12.5938 0.862056 12.4009 0.809435C12.1833 0.750061 11.9498 0.750061 11.4834 0.750061H3.59462C2.59897 0.750061 2.10077 0.750061 1.72049 0.955935C1.38598 1.13703 1.11421 1.42578 0.943766 1.78119C0.75 2.18524 0.75 2.71457 0.75 3.77244V14.7279C0.75 15.7857 0.75 16.3139 0.943766 16.718C1.11421 17.0734 1.38598 17.3631 1.72049 17.5442C2.1004 17.7499 2.59799 17.7499 3.5917 17.7499H4.30556M13.1944 17.7501V14.1581C13.1944 13.1023 13.1944 12.5736 13.0009 12.17C12.8304 11.8146 12.5577 11.5258 12.2232 11.3447C11.843 11.1388 11.3458 11.1388 10.3502 11.1388H7.15017C6.15452 11.1388 5.65633 11.1388 5.27604 11.3447C4.94153 11.5258 4.66976 11.8146 4.49932 12.17C4.30556 12.574 4.30556 13.1033 4.30556 14.1612V17.7499M11.4167 4.5278H6.08333" stroke="white" stroke-width="1.5" stroke-linecap="round" stroke-linejoin="round"/>
</svg>
