<svg width="114" height="36" viewBox="0 0 114 36" fill="none" xmlns="http://www.w3.org/2000/svg">
<path d="M11.1541 0.00178509C11.7925 0.119486 12.4042 0.294252 12.9642 0.645572C14.0912 1.35356 14.8706 2.34332 15.3503 3.56848C15.8033 4.72053 15.9923 5.93677 16.1296 7.16015C16.1528 7.37058 16.0743 7.49542 15.871 7.57567C14.4105 8.15526 13.1033 8.97025 11.9655 10.0617C11.0257 10.964 10.2856 12.0126 9.62752 13.1219C8.84284 14.4469 8.31854 15.8647 8.12237 17.3966C8.11702 17.434 8.0974 17.4697 8.0653 17.5606C7.9048 17.4394 7.75856 17.3413 7.63016 17.2254C5.80758 15.5865 4.59134 13.5606 3.83698 11.2494C3.46605 10.1116 3.26274 8.93814 3.32873 7.73973C3.42681 5.9546 4.03137 4.36921 5.23156 3.01208C6.13037 1.99557 7.13261 1.11459 8.37026 0.54749C8.9231 0.294254 9.53657 0.178335 10.1233 0C10.4657 0.00178335 10.8099 0.00178509 11.1541 0.00178509Z" fill="#A9A9A9"/>
<path d="M113.77 24.5175C112.193 24.5193 110.617 24.5246 109.04 24.5246C105.816 24.5264 102.593 24.5246 99.3691 24.5246C98.9928 24.5246 98.8983 24.4372 98.909 24.0663C98.9197 23.7453 98.95 23.4243 98.9857 23.1051C99.0517 22.4898 99.3834 22.003 99.8078 21.5928C100.764 20.669 101.745 19.7684 102.715 18.8589C103.103 18.4933 103.492 18.126 103.881 17.7586C104.723 16.9614 105.557 16.1571 106.404 15.3653C107.125 14.6912 107.856 14.0278 108.591 13.3662C108.685 13.2806 108.819 13.2378 108.933 13.1754C108.896 13.1254 108.86 13.0737 108.823 13.0238C108.707 13.0238 108.589 13.0238 108.473 13.0238C105.613 13.0238 102.754 13.0238 99.8934 13.0238C99.4529 13.0238 99.4494 13.0202 99.4494 12.5887C99.4476 12.0537 99.4565 11.5186 99.4458 10.9854C99.4404 10.7411 99.5243 10.6359 99.7793 10.6448C100.163 10.6573 100.548 10.6484 100.931 10.6484C104.994 10.6484 109.056 10.6484 113.119 10.6484C113.595 10.6484 113.604 10.6502 113.593 11.1103C113.582 11.5722 113.557 12.0358 113.529 12.4977C113.504 12.9025 113.301 13.2307 113.019 13.5C111.99 14.4808 110.952 15.4509 109.918 16.4246C109.536 16.7831 109.154 17.1433 108.773 17.5018C107.694 18.5165 106.617 19.5348 105.534 20.5477C104.917 21.1238 104.291 21.6909 103.669 22.2633C103.678 22.2883 103.685 22.3133 103.694 22.34C107.052 22.34 110.412 22.34 113.77 22.34C113.77 23.0658 113.77 23.7917 113.77 24.5175Z" fill="#A9A9A9"/>
<path d="M50.3949 24.5264C48.3441 24.5264 46.2932 24.5318 44.2406 24.5228C43.6164 24.5193 43.0154 24.3855 42.4822 24.0413C41.8134 23.608 41.5245 22.941 41.4175 22.1884C41.364 21.8211 41.3515 21.4466 41.3498 21.0756C41.3444 18.5433 41.348 16.0127 41.3462 13.4803C41.3444 11.6435 42.4893 10.693 44.1157 10.6662C47.5094 10.6109 50.9067 10.6413 54.3004 10.6573C54.9193 10.6609 55.522 10.8214 56.0588 11.1531C56.6527 11.5204 56.9273 12.0929 57.0522 12.7456C57.1074 13.0309 57.1235 13.3252 57.1253 13.6159C57.1324 15.2405 57.1288 16.8634 57.1288 18.488C57.1288 18.8821 57.1164 18.8964 56.7187 18.8964C52.9701 18.8964 49.2215 18.8964 45.4729 18.8964C45.0021 18.8964 45.0003 18.8964 45.0003 19.3583C45.0003 19.8112 45.0199 20.2678 44.9967 20.719C44.9468 21.6249 45.3623 22.0261 46.2754 22.1385C46.6641 22.1867 47.06 22.2063 47.4524 22.2063C50.4841 22.2116 53.5158 22.2098 56.5475 22.2098C57.0718 22.2098 57.0718 22.2098 57.0718 22.7466C57.0718 23.1996 57.0736 23.6544 57.0718 24.1073C57.07 24.5157 57.0629 24.5246 56.6402 24.5246C54.559 24.5264 52.4761 24.5264 50.3949 24.5264ZM49.2981 16.5192C50.6125 16.5192 51.9268 16.512 53.2394 16.5245C53.5211 16.5263 53.6085 16.43 53.6032 16.1554C53.5889 15.3885 53.6049 14.6217 53.5925 13.8548C53.5889 13.6908 53.5407 13.5124 53.4587 13.3698C53.2804 13.0559 52.9522 13.0274 52.6348 13.0256C51.5327 13.0185 50.4306 13.022 49.3302 13.022C48.2584 13.022 47.1867 13.0149 46.1167 13.0256C45.3694 13.0327 45.0038 13.4126 45.0021 14.1509C45.0003 14.7965 45.0021 15.442 45.0021 16.0876C45.0021 16.5156 45.0038 16.5156 45.4158 16.5174C46.7105 16.521 48.0052 16.5192 49.2981 16.5192Z" fill="#A9A9A9"/>
<path d="M18.8492 28.7529C18.4479 29.0936 18.0681 29.4645 17.6436 29.7712C15.8924 31.0392 13.8897 31.7597 11.8317 32.3286C10.7278 32.6353 9.60607 32.9188 8.47364 33.0829C6.62966 33.3486 4.79994 33.2327 3.10754 32.3464C1.51323 31.51 0.434301 30.2242 0.0865482 28.448C-0.118537 27.3994 0.0490982 26.3383 0.502069 25.3485C1.20828 23.8059 2.37993 22.7056 3.82445 21.8603C5.09241 21.1166 6.46559 20.6672 7.89584 20.3641C8.14551 20.3106 8.23289 20.3765 8.28461 20.6191C8.62344 22.2009 9.32073 23.6222 10.257 24.9294C10.9026 25.83 11.7764 26.4792 12.7198 27.0374C14.0912 27.8523 15.5856 28.3214 17.1603 28.5389C17.5687 28.596 17.9842 28.596 18.3962 28.6174C18.5246 28.6245 18.653 28.6192 18.7814 28.6192C18.8046 28.6638 18.8278 28.7084 18.8492 28.7529Z" fill="#A9A9A9"/>
<path d="M17.9971 6.88907C18.1308 6.66794 18.2271 6.49495 18.3359 6.33267C18.9654 5.38928 19.8179 4.69556 20.8094 4.16055C22.5393 3.22429 24.4082 2.73565 26.3485 2.54127C27.7395 2.40217 29.1412 2.31478 30.5394 2.30765C31.8394 2.3023 33.1359 2.47172 34.3682 2.94609C35.5845 3.41333 36.576 4.13023 36.9844 5.43743C37.2751 6.36655 37.1199 7.27071 36.7668 8.15347C36.3602 9.16641 35.7396 10.0402 35.0227 10.8552C33.6353 12.4335 31.9571 13.6105 30.0596 14.4897C29.785 14.6163 29.5015 14.7233 29.2215 14.8392C29.0521 14.9088 28.9629 14.8499 28.913 14.6734C28.5171 13.2628 27.9071 11.9502 27.0083 10.7893C25.7778 9.19851 24.3886 7.79858 22.393 7.1762C21.0912 6.76959 19.7626 6.69469 18.4144 6.88907C18.3038 6.90334 18.1861 6.88907 17.9971 6.88907Z" fill="#A9A9A9"/>
<path d="M29.4495 17.0649C29.7687 17.2878 30.1094 17.484 30.4054 17.7354C32.6952 19.6739 34.2182 22.0904 34.7229 25.0561C35.1277 27.4315 34.5624 29.6125 33.0555 31.5314C32.3171 32.4712 31.5325 33.3718 30.5267 34.0245C29.9078 34.4258 29.2355 34.7932 28.5364 35.0179C26.9136 35.5422 25.0429 34.8573 23.98 33.5198C23.0188 32.3125 22.6514 30.893 22.3678 29.4324C22.3054 29.106 22.2751 28.7743 22.2091 28.4498C22.1556 28.1841 22.2073 28.0253 22.4909 27.9183C23.8445 27.4119 25.0393 26.6379 26.0273 25.5964C27.6644 23.8701 28.7932 21.8567 29.1927 19.4884C29.3033 18.8375 29.2944 18.167 29.339 17.5036C29.3479 17.377 29.3532 17.2486 29.3604 17.1219C29.3907 17.1023 29.4192 17.0845 29.4495 17.0649Z" fill="#A9A9A9"/>
<path d="M68.5512 13.0238C68.4335 13.0238 68.3158 13.0238 68.1999 13.0238C65.3394 13.0238 62.4789 13.0238 59.6202 13.0238C59.1832 13.0238 59.1815 13.0202 59.1797 12.5851C59.1779 12.0501 59.1868 11.5151 59.1761 10.9819C59.1708 10.734 59.2653 10.6412 59.5132 10.6448C60.2604 10.6537 61.0094 10.6484 61.7566 10.6484C65.4553 10.6484 69.1539 10.6484 72.8526 10.6484C73.3234 10.6484 73.3323 10.6502 73.3216 11.1156C73.3109 11.5989 73.3234 12.0875 73.245 12.5601C73.1968 12.849 73.0559 13.1754 72.8508 13.3805C71.7737 14.4576 70.6698 15.5062 69.5659 16.5548C68.6528 17.4215 67.7273 18.2775 66.8035 19.1336C65.7834 20.0787 64.758 21.0186 63.7326 21.9566C63.6291 22.0511 63.5025 22.1207 63.3866 22.2027C63.4098 22.2455 63.433 22.2883 63.4561 22.3329C63.5685 22.3329 63.6826 22.3329 63.795 22.3329C66.8873 22.3329 69.9796 22.3329 73.072 22.3329C73.5642 22.3329 73.5642 22.3329 73.5642 22.8108C73.5642 23.2049 73.5642 23.5973 73.5642 23.9914C73.5642 24.5282 73.5642 24.5282 73.0399 24.5282C71.3421 24.5282 69.6444 24.5282 67.9466 24.5282C65.0255 24.5282 62.1044 24.5282 59.185 24.5282C58.691 24.5282 58.6946 24.5282 58.6893 24.0217C58.6821 23.4332 58.6643 22.8358 59.0085 22.3258C59.2474 21.9709 59.5363 21.6445 59.836 21.3378C60.2657 20.8991 60.7276 20.4907 61.1735 20.068C62.0651 19.2209 62.9515 18.3667 63.8467 17.525C65.1307 16.3159 66.4219 15.1139 67.7112 13.9101C67.9966 13.6426 68.2908 13.384 68.5797 13.1219C68.5744 13.088 68.5619 13.0559 68.5512 13.0238Z" fill="#A9A9A9"/>
<path d="M92.4251 10.709C92.1986 11.1174 91.9864 11.5008 91.7724 11.8824C91.0769 13.1219 90.3778 14.3595 89.6806 15.5972C88.8941 16.9935 88.1076 18.3899 87.3212 19.7862C86.6239 21.0257 85.9177 22.258 85.24 23.5063C84.8744 24.1822 84.3697 24.5549 83.5726 24.5317C82.7148 24.505 81.8552 24.5282 80.9956 24.5246C80.3643 24.5228 79.849 24.1501 79.6278 23.5651C78.6309 20.9454 77.6305 18.3292 76.6318 15.7113C76.0219 14.1098 75.412 12.5084 74.8039 10.9069C74.7807 10.8445 74.7771 10.7732 74.7593 10.6769C74.8663 10.6662 74.9519 10.6501 75.0393 10.6484C76.0897 10.6466 77.1418 10.6519 78.1922 10.643C78.4187 10.6412 78.5328 10.7161 78.6113 10.9355C79.2266 12.6635 79.8525 14.388 80.4767 16.1125C81.0902 17.8085 81.7036 19.5062 82.3171 21.2022C82.3367 21.2575 82.367 21.3092 82.4188 21.4198C82.647 21.0399 82.8575 20.7047 83.0554 20.3623C84.4125 18.0047 85.7679 15.6435 87.125 13.2841C87.5869 12.4799 88.0452 11.6738 88.5214 10.8784C88.5856 10.7696 88.7532 10.6591 88.8745 10.6573C89.9855 10.6412 91.0983 10.6466 92.2093 10.6501C92.2646 10.6519 92.3199 10.6805 92.4251 10.709Z" fill="#A9A9A9"/>
<path d="M97.2809 17.6052C97.2809 19.7738 97.2809 21.9423 97.2809 24.1127C97.2809 24.5121 97.2684 24.5246 96.8761 24.5246C95.8756 24.5264 94.8751 24.5175 93.8747 24.53C93.6018 24.5336 93.502 24.4462 93.502 24.1662C93.5091 19.7774 93.5091 15.3903 93.502 11.0015C93.502 10.7108 93.6197 10.643 93.8818 10.6448C94.8716 10.6537 95.8631 10.6484 96.8529 10.6484C97.272 10.6484 97.2809 10.6573 97.2809 11.0693C97.2809 13.2485 97.2809 15.4278 97.2809 17.6052Z" fill="#A9A9A9"/>
<path d="M20.4279 25.5643C20.2745 26.3864 19.9927 27.1033 19.5665 27.7614C19.5094 27.8488 19.3489 27.9112 19.233 27.9165C16.7916 28.0307 14.5321 27.4654 12.483 26.11C11.3934 25.3895 10.6052 24.4158 10.0006 23.278C9.56012 22.447 9.20345 21.5821 8.99302 20.6619C8.96449 20.5353 8.94843 20.4069 8.91455 20.2196C9.24625 20.1768 9.55834 20.1215 9.87221 20.0983C10.3537 20.0627 10.8388 20.0555 11.3221 20.0252C11.545 20.011 11.6431 20.1019 11.7019 20.3123C12.0158 21.4305 12.5936 22.4096 13.3943 23.2406C14.1487 24.0235 15.0297 24.6423 16.0551 25.0382C17.1697 25.468 18.3182 25.7016 19.5148 25.6553C19.8037 25.6392 20.0908 25.5964 20.4279 25.5643Z" fill="#A9A9A9"/>
<path d="M19.8124 7.43658C21.1553 7.44907 22.4054 7.7665 23.5593 8.42813C23.9766 8.66709 24.3689 8.96135 24.7291 9.28057C26.4108 10.7697 27.6485 12.553 28.2673 14.7323C28.3689 15.0907 28.3493 15.1496 27.9748 15.2298C27.3935 15.3529 26.8067 15.4492 26.2236 15.5633C25.9472 15.6168 25.874 15.4563 25.8295 15.2334C25.603 14.0885 25.1554 13.0381 24.4277 12.1214C23.4041 10.8303 22.0791 10.0242 20.442 9.76207C19.5218 9.61406 18.6105 9.67825 17.7188 9.94932C17.4656 10.026 17.3675 9.94219 17.3924 9.69966C17.4495 9.14147 17.5119 8.58328 17.5797 8.02509C17.6064 7.8093 17.7295 7.69517 17.9595 7.66842C18.5766 7.60065 19.1936 7.51505 19.8124 7.43658Z" fill="#A9A9A9"/>
<path d="M16.1953 9.4339C16.3736 10.2239 16.0259 10.6626 15.3732 11.1459C13.2028 12.7581 11.9135 14.9569 11.4837 17.6355C11.4355 17.9405 11.4587 18.2597 11.4659 18.5718C11.4712 18.7983 11.3963 18.9124 11.1538 18.8981C10.3477 18.85 9.61475 18.5789 8.94064 18.1563C8.84256 18.0956 8.78727 17.8781 8.80154 17.7407C9.02803 15.5294 9.96429 13.6212 11.2786 11.8575C12.4628 10.2685 13.984 9.13787 15.7834 8.35141C16.1739 8.18021 16.1935 8.20339 16.1953 8.64566C16.1953 8.9096 16.1953 9.17175 16.1953 9.4339Z" fill="#A9A9A9"/>
<path d="M26.8317 16.2196C27.3507 16.3408 27.8679 16.4585 28.385 16.5816C28.5669 16.6262 28.6204 16.7528 28.6347 16.94C28.8523 19.8772 27.8536 22.4042 25.9971 24.6192C25.0395 25.7605 23.8571 26.6343 22.4661 27.205C22.1522 27.3334 22.0684 27.2835 22.0631 26.9339C22.0559 26.3793 22.0488 25.8247 22.072 25.2701C22.0773 25.1488 22.179 24.983 22.286 24.9223C24.1906 23.8523 25.2802 22.2009 25.694 20.0984C25.8777 19.1639 25.9526 18.208 26.0596 17.261C26.081 17.0649 26.0292 16.8616 26.0078 16.6618C25.9882 16.4603 26.0435 16.3337 26.2807 16.3284C26.4608 16.3248 26.6391 16.2838 26.8193 16.2588C26.821 16.2463 26.8264 16.2338 26.8317 16.2196Z" fill="#A9A9A9"/>
<path d="M24.62 15.6293C22.9508 15.5954 21.3583 15.269 19.9191 14.3756C18.6458 13.5838 17.7951 12.4834 17.4741 11.0015C17.3671 10.5093 17.401 10.4754 17.8932 10.3381C19.3787 9.92433 20.8197 10.0545 22.175 10.7696C23.5375 11.4883 24.4916 12.5976 25.0337 14.0403C25.196 14.4719 25.2941 14.9266 25.4261 15.3689C25.4831 15.5579 25.4065 15.6328 25.221 15.6311C25.023 15.6275 24.8215 15.6293 24.62 15.6293Z" fill="#A9A9A9"/>
<path d="M12.0527 20.0663C12.6091 20.0984 13.1013 20.1001 13.5864 20.159C14.7081 20.2945 15.8174 20.4996 16.8838 20.8919C17.9039 21.2682 18.8687 21.7462 19.6141 22.5665C20.1902 23.1996 20.5147 23.9397 20.5094 24.81C20.5076 25.0133 20.4434 25.1185 20.2205 25.1452C18.767 25.3254 17.3707 25.1363 16.0171 24.5746C15.1361 24.209 14.3729 23.6704 13.7148 22.9981C13.005 22.2705 12.4486 21.4341 12.1544 20.4461C12.1276 20.3516 12.1045 20.2553 12.0527 20.0663Z" fill="#A9A9A9"/>
<path d="M11.9175 18.8357C11.5341 16.1821 13.9042 12.2926 16.128 11.1673C16.1031 11.483 16.1084 11.7683 16.0549 12.0412C15.848 13.0969 15.6715 14.1616 15.3933 15.1995C15.0705 16.4032 14.5177 17.4964 13.4637 18.2615C12.9911 18.6039 12.383 18.8411 11.9175 18.8357Z" fill="#A9A9A9"/>
<path d="M22.0628 24.5442C22.0628 24.2803 22.0467 24.0931 22.0646 23.9076C22.1841 22.6664 22.3142 21.4252 22.6656 20.2196C22.9973 19.0836 23.4306 18.0029 24.3722 17.2182C24.6558 16.9828 24.9839 16.7974 25.2996 16.6012C25.4975 16.4781 25.592 16.5513 25.5992 16.7831C25.6331 17.8549 25.5278 18.9106 25.3031 19.961C25.0856 20.9793 24.7218 21.9298 24.1101 22.7787C23.5911 23.501 22.9491 24.0841 22.0628 24.5442Z" fill="#A9A9A9"/>
</svg>
