<svg width="151" height="20" viewBox="0 0 151 20" fill="none" xmlns="http://www.w3.org/2000/svg">
<path d="M12.3324 18.9685C13.4353 15.9768 14.5272 13.0164 15.6285 10.0247C15.5344 10.0137 15.4654 9.9996 15.3979 9.9996C13.3255 9.99803 11.2531 10.0012 9.18226 9.9949C8.99871 9.9949 8.93282 10.0733 8.87634 10.2271C7.84563 13.0321 6.81178 15.8356 5.77794 18.6391C5.63047 19.0375 5.69322 18.9811 5.29631 18.9811C3.62709 18.9826 1.95788 18.9826 0.287093 18.9826C0.202377 18.9826 0.11923 18.9826 0 18.9826C0.0266698 18.8807 0.0392203 18.8069 0.0643213 18.7379C2.30929 12.6478 4.55583 6.5592 6.79453 0.467498C6.87454 0.251002 6.97808 0.181975 7.20712 0.183543C8.89674 0.194525 10.5863 0.18982 12.2744 0.18982C12.3575 0.18982 12.4423 0.18982 12.5756 0.18982C11.6845 2.60736 10.8091 4.98411 9.92274 7.39224C10.0263 7.39851 10.0969 7.40479 10.1659 7.40479C12.232 7.40479 14.2966 7.40322 16.3627 7.40949C16.5353 7.40949 16.6169 7.35615 16.6765 7.19143C17.5032 4.93077 18.3394 2.67325 19.1693 0.412594C19.2227 0.268263 19.2823 0.186684 19.4596 0.186684C21.2088 0.192959 22.9564 0.189822 24.7057 0.19139C24.7637 0.19139 24.8218 0.199234 24.908 0.205509C24.8798 0.2965 24.861 0.370234 24.8343 0.440831C23.4271 4.25932 22.0199 8.07781 20.6126 11.8963C19.9051 13.815 19.196 15.732 18.49 17.6523C18.1543 18.5638 17.5581 18.9826 16.5839 18.9826C15.2645 18.9826 13.9436 18.9826 12.6242 18.9826C12.5427 18.9811 12.4595 18.9748 12.3324 18.9685Z" fill="#A9A9A9"/>
<path d="M50.9817 18.9654C50.8719 18.9717 50.8075 18.9779 50.7448 18.9779C49.267 18.9779 47.7891 18.9748 46.3097 18.9795C45.6995 18.9811 45.1582 18.8226 44.7519 18.3457C44.617 18.1873 44.504 18.0037 44.4083 17.817C43.2286 15.5375 42.0551 13.2549 40.8785 10.9739C40.8393 10.8986 40.7969 10.8264 40.7436 10.7323C40.6761 10.7746 40.6197 10.8044 40.5695 10.8421C40.2024 11.1229 39.8321 11.399 39.4729 11.6892C39.3866 11.7583 39.3207 11.8712 39.2815 11.9763C38.4704 14.1664 37.664 16.3565 36.8561 18.5481C36.8247 18.6344 36.7855 18.7191 36.7604 18.8085C36.7243 18.9372 36.6474 18.9811 36.5141 18.9811C34.746 18.9779 32.9764 18.9795 31.2084 18.9779C31.1644 18.9779 31.1189 18.967 31.0483 18.9591C31.0703 18.8791 31.0829 18.8116 31.1064 18.7473C32.6752 14.4896 34.2456 10.2318 35.816 5.97405C36.489 4.14796 37.1604 2.32185 37.835 0.497324C37.9652 0.144341 37.9088 0.188268 38.2806 0.188268C39.9639 0.186699 41.6457 0.186699 43.329 0.188268C43.4121 0.188268 43.4953 0.196115 43.6177 0.200821C42.7595 2.52894 41.9139 4.82568 41.0668 7.12399C41.0778 7.1334 41.0903 7.14125 41.1013 7.15066C41.3868 6.9326 41.6739 6.7161 41.9594 6.49646C44.6343 4.44289 47.3091 2.38932 49.9808 0.334171C50.1141 0.232198 50.2475 0.185134 50.4153 0.186702C51.6563 0.191409 52.8972 0.189838 54.1365 0.189838C54.2056 0.189838 54.2746 0.189838 54.3436 0.189838C54.3483 0.207095 54.3546 0.222785 54.3593 0.240041C54.3076 0.283968 54.2573 0.331034 54.2024 0.373392C51.2248 2.66072 48.2472 4.94648 45.2681 7.23224C45.0296 7.41579 45.028 7.41579 45.1692 7.68877C47.0502 11.3363 48.9312 14.9822 50.8138 18.6297C50.8656 18.7269 50.9126 18.8258 50.9817 18.9654Z" fill="#A9A9A9"/>
<path d="M119.286 0.00312931C119.887 0.00312931 120.488 0.00312931 121.087 0.00312931C123.445 0.00469813 125.535 1.81982 125.861 4.15892C125.958 4.86018 125.869 5.54888 125.699 6.23602C125.045 8.88888 124.132 11.4476 122.803 13.8353C121.199 16.7188 118.743 18.4633 115.487 19.0438C114.945 19.1411 114.385 19.1583 113.833 19.1677C112.771 19.1866 111.707 19.174 110.645 19.1725C108.369 19.1693 106.361 17.5503 105.889 15.3226C105.718 14.5193 105.798 13.7287 105.994 12.9349C106.623 10.3934 107.5 7.94446 108.725 5.63046C110.367 2.52578 112.922 0.646343 116.401 0.106671C117.267 -0.0282464 118.164 0.0329383 119.046 0.00469966C119.128 -6.77793e-06 119.208 0.00312931 119.286 0.00312931ZM118.823 1.96572C118.528 1.99395 118.229 2.00023 117.94 2.05514C116.139 2.39714 114.933 3.44353 114.302 5.15981C113.582 7.11612 112.865 9.074 112.147 11.0303C111.71 12.2195 111.265 13.4055 110.84 14.5994C110.44 15.7258 111.131 16.9479 112.308 17.1424C112.743 17.2146 113.209 17.1942 113.645 17.1236C115.483 16.8239 116.731 15.7807 117.379 14.033C118.081 12.1332 118.778 10.2318 119.474 8.33038C119.934 7.08004 120.406 5.83284 120.844 4.57465C121.109 3.81221 120.949 3.11565 120.375 2.53362C119.951 2.09906 119.426 1.93434 118.823 1.96572Z" fill="#A9A9A9"/>
<path d="M131.415 6.14034C131.14 6.88239 130.875 7.59149 130.613 8.30216C129.322 11.7912 128.029 15.2802 126.743 18.7709C126.685 18.9277 126.606 18.9826 126.44 18.9811C125.681 18.9732 124.923 18.9779 124.164 18.9764C124.093 18.9764 124.023 18.9669 123.925 18.9607C123.954 18.8571 123.971 18.7756 123.999 18.6987C125.199 15.4575 126.399 12.2148 127.599 8.97362C128.641 6.15917 129.683 3.34315 130.728 0.530269C130.874 0.138066 130.808 0.19297 131.212 0.19297C132.149 0.189833 133.087 0.191405 134.024 0.191405C134.344 0.191405 134.344 0.191406 134.461 0.491049C136.037 4.48681 137.61 8.48257 139.185 12.4783C139.223 12.574 139.265 12.6682 139.323 12.8031C139.366 12.7105 139.392 12.6619 139.413 12.6101C140.732 9.04735 142.053 5.48301 143.372 1.92023C143.562 1.40723 143.754 0.89423 143.942 0.37966C143.984 0.265136 144.036 0.189835 144.179 0.189835C144.99 0.194541 145.802 0.191402 146.613 0.19297C146.651 0.19297 146.69 0.202386 146.756 0.21023C146.731 0.296515 146.712 0.370247 146.687 0.439275C144.594 6.09327 142.502 11.7488 140.407 17.4028C140.238 17.8609 140.062 18.3159 139.901 18.7771C139.849 18.9246 139.77 18.9826 139.612 18.9811C138.885 18.9748 138.161 18.9795 137.434 18.9779C136.65 18.9764 136 18.5355 135.726 17.7966C135.073 16.0474 134.427 14.2966 133.779 12.5458C133.034 10.5346 132.29 8.52494 131.545 6.51372C131.501 6.4039 131.467 6.29095 131.415 6.14034Z" fill="#A9A9A9"/>
<path d="M98.5102 0.207073C98.4836 0.30434 98.4679 0.381211 98.4412 0.451808C98.2075 1.09031 97.9659 1.72568 97.7415 2.36576C97.6803 2.54146 97.5862 2.58853 97.4074 2.58853C94.9334 2.58382 92.4578 2.60108 89.9838 2.57598C88.9687 2.56499 88.28 3.30705 88.2283 4.21225C88.2079 4.57151 88.3271 4.89468 88.5326 5.1959C89.0268 5.91912 89.6229 6.54978 90.2379 7.16946C91.0145 7.95073 91.8036 8.72101 92.5331 9.54464C93.3143 10.4279 93.9215 11.4241 94.1176 12.6195C94.3827 14.237 93.9858 15.685 92.9723 16.9604C92.1111 18.0429 90.9894 18.7034 89.6166 18.9152C89.3499 18.956 89.0786 18.9748 88.8087 18.9748C85.3573 18.9795 81.9059 18.9779 78.4546 18.9763C78.3777 18.9763 78.3008 18.9685 78.1973 18.9622C78.2271 18.8587 78.2443 18.7771 78.2726 18.6987C78.5032 18.0664 78.7432 17.4373 78.9644 16.802C79.0303 16.6121 79.1307 16.5541 79.3252 16.5557C81.9844 16.5604 84.6435 16.5588 87.3026 16.5588C88.2847 16.5588 88.8981 16.0364 89.0534 15.0653C89.1146 14.6809 89.008 14.3374 88.8056 14.0111C88.2785 13.1592 87.6384 12.3983 86.9685 11.6594C86.206 10.8185 85.4342 9.98705 84.6843 9.13675C83.994 8.35234 83.594 7.42361 83.4591 6.3929C83.2551 4.83978 83.6285 3.42627 84.598 2.19319C85.4969 1.04795 86.6955 0.409448 88.1373 0.233741C88.4181 0.199227 88.702 0.191384 88.986 0.191384C92.0546 0.188247 95.1232 0.189814 98.1918 0.189814C98.2906 0.191383 98.3863 0.200798 98.5102 0.207073Z" fill="#A9A9A9"/>
<path d="M62.4732 13.0227C62.5438 12.9254 62.5862 12.8705 62.6254 12.8125C64.9896 9.28109 67.3538 5.7497 69.718 2.2183C70.1321 1.59862 70.5447 0.977371 70.9699 0.363966C71.0248 0.285525 71.1409 0.200806 71.2287 0.199237C72.1653 0.188256 73.1035 0.191392 74.0401 0.192961C74.0777 0.192961 74.1169 0.203945 74.1875 0.214927C74.1357 0.307486 74.0981 0.385925 74.0495 0.458091C70.4035 5.8956 66.7561 11.3315 63.1101 16.7675C62.8089 17.2162 62.503 17.6633 62.2034 18.1151C61.8143 18.7018 61.2683 18.9826 60.5655 18.9795C59.6682 18.9748 58.7708 18.9717 57.8734 18.9842C57.6616 18.9873 57.5848 18.9214 57.5707 18.7128C57.5205 17.9566 57.4561 17.2005 57.3965 16.4459C57.3212 15.4999 57.2459 14.5539 57.1706 13.6063C57.1126 12.8705 57.0577 12.1332 56.9996 11.3974C56.9259 10.4577 56.849 9.51799 56.7753 8.57827C56.7172 7.84877 56.6623 7.11927 56.6043 6.38977C56.529 5.4375 56.4521 4.48367 56.3768 3.5314C56.3046 2.61835 56.2372 1.70373 56.1666 0.790683C56.1572 0.679297 56.143 0.567911 56.1336 0.456525C56.1148 0.21179 56.1305 0.192961 56.3721 0.192961C56.8537 0.191392 57.3353 0.192961 57.817 0.192961C58.9387 0.192961 60.0604 0.192961 61.1821 0.192961C61.4535 0.192961 61.4597 0.205512 61.4817 0.483192C61.5837 1.79786 61.6888 3.11252 61.7908 4.42562C61.8629 5.35906 61.9288 6.29251 62.0026 7.22595C62.0873 8.31 62.1798 9.39405 62.2661 10.4781C62.3257 11.2405 62.3806 12.003 62.4371 12.7654C62.4434 12.836 62.4575 12.9051 62.4732 13.0227Z" fill="#A9A9A9"/>
<path d="M34.128 0.202405C34.0966 0.307515 34.0778 0.382816 34.0511 0.454981C31.8045 6.54982 29.558 12.6447 27.3162 18.7411C27.2534 18.9136 27.1718 18.9874 26.9773 18.9858C25.2548 18.978 23.5338 18.9811 21.8112 18.9811C21.7406 18.9811 21.67 18.9732 21.5728 18.9685C21.601 18.8713 21.6183 18.796 21.6449 18.7254C23.0553 14.8943 24.4672 11.0649 25.8791 7.23539C26.7185 4.95904 27.5593 2.6827 28.3955 0.403212C28.4504 0.254175 28.5179 0.183576 28.6905 0.185145C30.4256 0.19142 32.1607 0.188283 33.8958 0.189851C33.9601 0.188283 34.0244 0.196129 34.128 0.202405Z" fill="#A9A9A9"/>
<path d="M69.4482 18.9638C69.4749 18.8665 69.4906 18.7912 69.5157 18.7191C71.0374 14.5915 72.5623 10.464 74.0841 6.33487C74.8026 4.38484 75.5211 2.4348 76.2396 0.484771C76.3479 0.189834 76.3479 0.188263 76.6554 0.188263C78.232 0.188263 79.8087 0.188263 81.3869 0.188263C81.4716 0.188263 81.5548 0.19611 81.6662 0.200816C81.6395 0.291807 81.6238 0.359265 81.6003 0.425155C80.2825 4.00362 78.9631 7.58051 77.6453 11.1574C76.7118 13.6895 75.7768 16.22 74.8497 18.7536C74.7853 18.9293 74.6975 18.9795 74.5186 18.9779C72.9153 18.9717 71.312 18.9748 69.7087 18.9732C69.6287 18.9779 69.5518 18.9701 69.4482 18.9638Z" fill="#A9A9A9"/>
<path d="M95.271 18.9591C95.4232 18.5402 95.5597 18.1637 95.6977 17.7872C97.8203 12.025 99.9445 6.26115 102.069 0.498898C102.182 0.19298 102.182 0.192978 102.499 0.192978C104.063 0.192978 105.627 0.192978 107.191 0.192978C107.282 0.192978 107.373 0.192978 107.498 0.192978C107.472 0.298088 107.459 0.373396 107.434 0.442423C105.184 6.5451 102.935 12.6478 100.688 18.752C100.625 18.9215 100.541 18.9826 100.357 18.9826C98.7538 18.9764 97.1504 18.9795 95.5471 18.9779C95.4702 18.9779 95.3949 18.967 95.271 18.9591Z" fill="#A9A9A9"/>
<path d="M149.024 3.73377C147.953 3.7322 147.12 2.90544 147.123 1.84649C147.126 0.818918 147.969 0.00156881 149.026 0C150.087 0 150.938 0.83304 150.934 1.86846C150.931 2.91329 150.088 3.73534 149.024 3.73377ZM150.419 1.87159C150.421 1.02757 149.836 0.409459 149.035 0.406322C148.242 0.403184 147.619 1.03542 147.616 1.84806C147.614 2.67482 148.234 3.31804 149.034 3.31961C149.821 3.32118 150.418 2.69679 150.419 1.87159Z" fill="#A9A9A9"/>
<path d="M149.501 1.89358C149.832 2.13517 149.81 2.48031 149.903 2.77995C149.542 2.9086 149.431 2.85055 149.34 2.49757C149.257 2.17596 149.18 2.1038 148.94 2.10223C148.817 2.10223 148.755 2.14301 148.758 2.27323C148.762 2.40501 148.756 2.53679 148.756 2.66857C148.758 2.83957 148.635 2.82702 148.522 2.82702C148.408 2.82702 148.287 2.84114 148.287 2.67014C148.287 2.14929 148.284 1.62845 148.293 1.1076C148.295 1.05426 148.377 0.960131 148.428 0.955425C148.709 0.930324 148.995 0.90836 149.275 0.925617C149.517 0.939736 149.752 1.01818 149.825 1.29742C149.892 1.56726 149.79 1.76493 149.501 1.89358ZM148.762 1.48725C148.762 1.75395 148.77 1.76807 148.905 1.76964C149.183 1.77278 149.343 1.67865 149.346 1.51079C149.351 1.34292 149.219 1.25507 148.982 1.23938C148.766 1.22526 148.745 1.34919 148.762 1.48725Z" fill="#A9A9A9"/>
</svg>
