<svg width="538" height="185" viewBox="0 0 538 185" fill="none" xmlns="http://www.w3.org/2000/svg">
<path d="M188.55 43.658C185.337 41.0233 182.203 38.2734 178.889 35.761C164.597 24.9485 148.691 17.5554 131.056 14.2368C98.9489 8.18989 69.896 14.3736 46.4766 38.1078C23.5253 61.3669 18.4899 95.3232 39.3736 123.355C51.1014 139.099 67.4179 148.162 86.7385 151.732C102.58 154.655 118.017 152.985 133.124 147.579C136.898 146.225 140.558 147.536 142.503 151.344C146.415 159.018 147.25 167.181 145.082 175.474C143.656 180.93 138.995 182.629 134.053 183.299C112.038 186.258 90.0882 185.674 68.8875 178.828C37.8392 168.793 14.6503 149.472 4.13273 117.834C-3.70498 94.265 -0.103091 71.3947 12.4675 50.0073C22.2935 33.3062 36.2688 20.8884 53.3634 12.1276C65.8187 5.75672 79.1169 1.78302 93.1931 0.487253C121.583 -2.12588 146.897 5.8359 169.366 22.8249C175.986 27.8352 181.425 34.422 187.339 40.3394C188.132 41.1313 188.571 42.2687 189.176 43.2477C188.975 43.3773 188.766 43.5212 188.55 43.658Z" fill="#1976BA"/>
<path d="M153.878 89.9386C148.619 92.4438 143.504 95.316 138.073 97.3821C128.528 101.017 128.045 102.205 131.524 111.837C133.513 117.337 136.985 121.39 141.257 125.004C141.819 125.479 142.878 125.817 143.547 125.63C147.646 124.507 151.681 123.125 155.787 122.023C157.977 121.433 160.664 120.368 162.393 121.138C163.761 121.75 164.374 124.795 164.683 126.854C165.188 130.251 164.575 133.361 160.584 134.578C160.037 134.743 159.67 135.514 159.403 136.241C169.791 133.016 179.271 128.121 187.296 120.821C191.525 116.977 195.213 112.528 199.009 108.231C200.904 106.085 202.863 104.89 205.522 106.64C208.057 108.31 208.216 110.419 205.954 113.406C194.601 128.38 179.97 138.768 162.068 144.512C160.714 144.951 159.259 145.117 157.833 145.297C155.167 145.635 153.669 144.635 153.871 141.726C154.245 136.342 154.317 135.708 147.38 136.09C146.22 136.154 144.923 136.45 143.965 137.061C139.866 139.703 135.839 139.883 132.065 136.694C130.869 135.679 129.666 134.045 129.5 132.577C129.205 129.971 128.405 128.034 126.734 125.889C124.27 122.729 122.649 118.885 120.856 115.235C119.415 112.312 117.751 111.78 114.574 113.018C105.634 116.502 96.55 119.619 87.4444 122.664C86.3639 123.024 84.1667 122.484 83.648 121.649C82.3298 119.525 84.5773 119.129 85.9316 118.64C96.089 114.976 106.282 111.42 116.432 107.734C119.328 106.683 121.036 107.899 122.318 110.261C124.27 113.838 126.165 117.445 128.11 121.03C128.369 121.505 128.801 121.894 129.759 123.082C129.543 121.599 129.608 120.994 129.37 120.54C127.245 116.387 125.135 112.226 122.88 108.144C121.389 105.445 119.17 104.782 116.166 105.913C111.786 107.554 107.37 109.217 102.825 110.261C100.044 110.894 96.7877 111.081 94.1223 110.253C88.1864 108.411 82.337 106.107 76.7612 103.364C74.6793 102.342 72.7992 99.808 71.9995 97.5476C70.8253 94.2146 68.7506 92.8973 65.6314 92.9189C63.2686 92.9333 60.9057 93.4012 58.5645 93.7971C57.6352 93.9555 56.7996 94.553 55.8775 94.8121C53.5002 95.4816 50.3666 96.9862 49.3436 93.7395C48.3639 90.6009 52.009 90.6729 53.9108 89.989C85.1752 78.723 116.483 67.5794 147.747 56.3134C157.213 52.9012 157.177 52.7716 160.966 62.1659C161.953 64.6135 162.868 67.0898 163.841 69.5374C165.425 73.5255 164.525 77.0169 161.852 80.2347C159.648 82.8911 157.559 85.641 155.419 88.3549C154.922 88.8804 154.396 89.4059 153.878 89.9386ZM94.7923 86.692C94.9436 87.1311 95.1021 87.5774 95.2533 88.0165C113.4 81.4729 131.546 74.9221 149.692 68.3784C149.555 68.0113 149.426 67.637 149.289 67.2698C131.128 73.7415 112.96 80.2203 94.7923 86.692Z" fill="#1976BA"/>
<path d="M476.657 89.4995C476.657 87.7502 476.657 86.0081 476.657 84.2588C476.657 79.2197 476.657 74.1806 476.665 69.1487C476.672 62.6266 478.552 61.0717 484.942 62.6986C485.957 62.9578 487.326 64.5847 487.333 65.5925C487.499 78.1831 487.513 90.7809 487.305 103.371C487.29 104.43 485.489 106.107 484.265 106.373C479.078 107.511 475.267 105.445 471.874 101.262C465.715 93.6603 459.023 86.4904 451.768 78.2479C451.639 80.6954 451.509 82.0344 451.509 83.3806C451.487 89.737 451.415 96.0935 451.523 102.45C451.574 105.308 450.601 106.784 447.576 106.539C446.38 106.438 445.177 106.496 443.974 106.503C441.719 106.517 440.682 105.337 440.682 103.155C440.675 90.6801 440.675 78.2119 440.689 65.7365C440.689 63.4833 441.964 62.713 444.104 62.4683C449.053 61.8852 452.633 63.4617 455.896 67.4786C462.135 75.174 468.978 82.3727 475.577 89.7802C475.944 89.6794 476.297 89.5931 476.657 89.4995Z" fill="#1976BA"/>
<path d="M295.101 84.4172C295.101 78.4206 295.144 72.4241 295.079 66.4275C295.05 63.7352 296.16 62.4611 298.926 62.4754C310.452 62.5186 321.971 62.5402 333.497 62.4682C336.854 62.4467 337.034 64.4767 337.019 66.9819C337.005 69.5518 336.955 71.9058 333.418 71.8914C325.738 71.8626 318.052 71.9634 310.373 71.8698C307.542 71.8338 305.863 72.3881 305.863 75.7859C305.863 79.0757 307.304 79.8892 310.25 79.8172C315.768 79.6876 321.294 79.882 326.812 79.7524C330.212 79.6732 331.177 81.4009 331.177 84.4244C331.177 87.3758 330.399 89.2835 326.934 89.2115C321.178 89.1035 315.394 89.4779 309.659 89.0963C305.561 88.8228 305.539 91.2415 305.359 93.9627C305.128 97.3893 307.57 97.0581 309.739 97.0581C317.303 97.0725 324.859 97.0365 332.423 97.0869C336.609 97.1157 337.264 98.0947 337.264 103.127C337.257 106.539 335.002 106.517 332.596 106.517C321.675 106.503 310.747 106.532 299.826 106.503C295.583 106.488 295.115 105.999 295.086 101.68C295.05 95.9207 295.079 90.1617 295.079 84.41C295.086 84.4172 295.093 84.4172 295.101 84.4172Z" fill="#1976BA"/>
<path d="M537.947 84.6619C537.947 88.0165 538.048 91.3711 537.926 94.7185C537.674 101.737 533.373 106.236 526.428 106.445C519.606 106.647 512.763 106.661 505.941 106.438C499.321 106.222 495.286 103.055 494.753 96.5758C494.112 88.758 494.069 80.8106 494.667 72.9856C495.178 66.3412 499.126 63.001 505.89 62.6554C512.943 62.2955 520.031 62.3315 527.091 62.6194C533.394 62.8714 537.616 67.4714 537.911 73.8926C538.077 77.4776 537.94 81.077 537.94 84.6691C537.94 84.6619 537.947 84.6619 537.947 84.6619ZM527.754 84.7915C527.754 81.7968 527.768 78.795 527.747 75.8003C527.732 73.3311 526.479 71.9778 523.986 71.9634C518.828 71.9346 513.663 71.9274 508.505 71.9706C505.977 71.9922 504.839 73.4751 504.839 75.9011C504.831 81.6601 504.824 87.4118 504.846 93.1708C504.853 95.8775 506.387 97.0365 508.974 97.0365C513.894 97.0365 518.814 97.0365 523.734 97.0365C526.371 97.0365 527.747 95.7264 527.754 93.07C527.761 90.3129 527.754 87.5558 527.754 84.7915Z" fill="#1976BA"/>
<path d="M433.536 84.3812C433.543 90.4929 433.428 96.6118 433.586 102.716C433.68 106.179 431.771 106.64 429.019 106.539C426.245 106.438 423.213 106.985 423.328 102.637C423.414 99.2826 423.263 95.928 423.342 92.5733C423.4 90.097 422.269 89.1539 419.863 89.1827C414.345 89.2547 408.827 89.2907 403.316 89.1683C400.42 89.1036 399.527 90.4209 399.627 93.0988C399.75 96.3311 399.584 99.5705 399.671 102.803C399.736 105.322 398.785 106.676 396.112 106.524C394.916 106.46 393.713 106.474 392.517 106.517C389.938 106.611 388.8 105.358 388.807 102.824C388.829 90.6009 388.829 78.3775 388.807 66.154C388.8 63.5985 389.982 62.3891 392.539 62.4899C393.497 62.5259 394.462 62.5547 395.413 62.4683C398.453 62.1947 399.858 63.4113 399.692 66.5859C399.534 69.6958 399.757 72.82 399.635 75.9299C399.527 78.651 400.535 79.8676 403.381 79.8028C408.892 79.6804 414.417 79.7164 419.928 79.7884C422.384 79.8172 423.4 78.7662 423.35 76.3402C423.278 72.8632 423.328 69.3863 423.378 65.9165C423.443 61.7196 426.62 62.641 429.127 62.4971C431.67 62.3459 433.629 62.7418 433.565 66.0604C433.442 72.1578 433.528 78.2695 433.536 84.3812Z" fill="#1976BA"/>
<path d="M366.087 106.481C362.125 106.481 358.155 106.604 354.2 106.452C347.487 106.193 343.784 103.443 343.287 96.8925C342.682 88.9236 342.566 80.825 343.33 72.8848C344.007 65.866 347.573 62.9865 354.618 62.6482C362.643 62.2667 370.697 62.5186 378.744 62.5042C381.985 62.497 382.23 64.7574 382.295 67.1978C382.367 70.0269 381.395 71.8698 378.232 71.8698C371.987 71.8698 365.748 71.877 359.502 71.9058C354.107 71.9346 353.545 72.4961 353.523 77.9239C353.509 82.8406 353.566 87.7646 353.516 92.6813C353.487 95.6903 354.892 97.0725 357.896 97.0581C364.502 97.0221 371.101 97.1661 377.706 97.0221C381.107 96.9429 382.504 98.2315 382.374 101.665C382.216 105.855 381.791 106.467 377.613 106.51C373.773 106.546 369.926 106.517 366.087 106.517C366.087 106.51 366.087 106.496 366.087 106.481Z" fill="#1976BA"/>
<path d="M268.893 62.4827C274.887 62.4827 280.888 62.5978 286.881 62.4323C290.166 62.3459 290.966 63.8864 290.937 66.8163C290.908 69.7894 290.613 72.1146 286.766 71.913C284.136 71.7762 281.478 72.0498 278.856 71.8554C275.47 71.6034 274.152 72.8488 274.231 76.3474C274.419 84.8491 274.31 93.358 274.282 101.867C274.267 106.215 273.957 106.481 269.513 106.51C264.211 106.546 263.512 106.078 263.476 101.795C263.404 93.286 263.346 84.7771 263.49 76.2754C263.548 73.0504 262.482 71.6322 259.146 71.8554C256.279 72.0426 253.391 71.8266 250.516 71.8914C246.706 71.9778 246.878 69.379 246.806 66.7443C246.734 64.0664 247.354 62.3747 250.552 62.4467C256.661 62.5762 262.777 62.4827 268.893 62.4827Z" fill="#1976BA"/>
<path d="M154.879 173.487C155.823 173.321 156.774 173.206 157.71 172.99C172.535 169.52 186.813 164.445 199.542 156.059C208.41 150.221 216.529 143.238 224.9 136.673C226.794 135.183 227.486 133.095 225.649 131.022C223.783 128.912 221.622 129.258 219.526 130.741C218.849 131.223 218.251 131.835 217.653 132.418C208.511 141.229 198.26 148.457 186.857 154.036C176.361 159.176 165.389 162.97 153.964 165.468C147.265 166.231 148.179 174.25 154.879 173.487Z" fill="#F49427"/>
<path d="M153.51 160.493C154.339 160.357 155.174 160.263 155.981 160.069C179.811 154.31 200.277 142.784 216.846 124.586C219.187 122.016 219.389 119.525 217.357 117.682C215.225 115.753 212.646 116.322 210.312 119.101C201.127 130.028 189.832 138.278 176.829 143.929C168.955 147.348 160.592 149.652 152.423 152.38C146.148 153.208 147.236 161.336 153.51 160.493Z" fill="#F49427"/>
<path d="M53.3994 97.9364C58.2476 93.9195 63.1317 93.466 68.1456 95.8416C69.3702 96.4246 70.4796 97.9868 70.919 99.3401C71.9419 102.472 73.9014 104.307 76.9342 105.423C81.4221 107.079 85.8236 108.965 90.2468 110.779C91.6299 111.348 92.9914 111.988 95.0157 112.888C93.683 113.68 93.0778 114.177 92.3863 114.429C86.7601 116.452 81.1052 118.374 75.4934 120.432C70.5012 122.261 68.1528 121.512 65.862 116.826C64.025 113.068 62.4185 109.202 60.7329 105.373C59.2777 102.054 58.759 97.9076 53.3994 97.9364Z" fill="#1976BA"/>
<path d="M231.023 84.122C231.023 78.2551 231.109 72.3809 230.987 66.5139C230.929 63.6273 231.96 62.2091 234.956 62.4755C235.907 62.5618 236.88 62.569 237.831 62.4755C241.029 62.1803 241.973 63.7352 241.944 66.7443C241.843 78.4782 241.821 90.2193 241.966 101.96C242.009 105.351 240.899 106.942 237.427 106.517C237.189 106.488 236.952 106.517 236.707 106.517C231.045 106.532 231.023 106.51 231.016 101.01C231.009 95.3808 231.016 89.7514 231.016 84.122H231.023Z" fill="#1976BA"/>
<path d="M114.797 29.3613C103.444 29.5701 94.1583 32.3056 86.3782 39.4827C85.3193 40.4618 82.3945 40.9657 81.458 40.2386C79.3185 38.5757 81.1987 36.7976 82.6323 35.5522C95.455 24.3366 110.129 21.0756 126.554 25.4524C133.304 27.2521 139.168 30.6499 144.333 35.2787C145.701 36.5025 147.754 37.9998 145.946 40.0443C144.253 41.9519 142.503 40.4906 140.947 39.2308C133.023 32.8311 123.989 29.4621 114.797 29.3613Z" fill="#1976BA"/>
<path d="M134.701 52.714C133.044 53.4267 131.849 54.2257 130.566 54.3841C129.81 54.4777 128.881 53.621 128.11 53.0811C118.111 46.0696 107.824 46.2423 98.3294 53.657C96.7157 54.9168 94.8284 55.5935 93.719 53.6714C93.1787 52.7428 93.791 50.3024 94.7131 49.5034C105.043 40.5265 121.403 39.1372 132.425 49.381C133.167 50.0793 133.606 51.1015 134.701 52.714Z" fill="#1976BA"/>
<path d="M153.878 89.9386C154.404 89.4059 154.929 88.8804 155.448 88.3477C159.453 88.2037 158.337 90.824 157.48 92.6669C155.455 97.0077 151.803 99.6929 147.365 101.298C143.086 102.846 138.8 104.379 134.442 105.675C133.491 105.956 132.238 105.207 131.121 104.926C131.74 103.811 132.101 102.076 133.023 101.68C137.201 99.9088 141.538 98.4979 145.831 96.9861C149.469 95.7048 152.545 93.8259 153.878 89.9386Z" fill="#1976BA"/>
<path d="M62.5842 116.149C61.0354 112.917 58.7878 106.784 57.1669 103.595C56.7059 100.665 51.973 101.413 52.434 104.343C54.0765 109.094 55.8558 113.817 57.981 118.366C60.0412 122.642 64.6444 120.418 62.5842 116.149Z" fill="#1976BA"/>
<path d="M47.0024 109.361C48.5296 112.989 50.0496 116.631 51.8866 120.101C53.6227 124.442 58.2763 122.578 56.5402 118.237C55.4308 114.731 53.8964 111.34 52.3116 108C49.8479 102.515 44.762 103.494 47.0024 109.361Z" fill="#1976BA"/>
</svg>
